<svg width="991" height="449" viewBox="0 0 991 449" fill="none" xmlns="http://www.w3.org/2000/svg">
<path d="M78.6835 355.894C43.8178 355.894 17.4329 332.808 17.4329 296.999C17.4329 269.672 32.51 247.057 77.2701 230.566L100.828 222.085C128.626 212.191 137.107 207.479 137.107 199.941C137.107 192.402 128.626 188.162 113.549 188.162C79.1547 188.162 34.3946 210.777 9.42318 247.057V154.709C37.6927 126.911 74.9143 108.536 117.319 108.536C172.915 108.536 212.493 140.104 212.493 196.171V346H137.107V309.721C126.271 339.875 107.895 355.894 78.6835 355.894ZM114.963 308.778C129.569 308.778 137.107 294.644 137.107 273.913V240.932C134.28 246.585 128.626 253.653 117.319 261.191C103.655 270.143 95.6453 278.624 95.6453 289.461C95.6453 300.298 103.655 308.778 114.963 308.778ZM237.291 346V118.43H244.83C255.666 118.43 259.907 111.834 259.907 104.767C259.907 86.8626 232.579 77.4394 232.579 48.2276C232.579 24.1985 251.426 6.29444 274.984 6.29444C298.542 6.29444 317.388 24.1985 317.388 48.2276C317.388 77.4394 290.061 86.8626 290.061 104.767C290.061 111.834 294.301 118.43 305.138 118.43H312.676V346H237.291ZM404.895 374.27C404.895 354.481 395.943 346 376.154 346L324.327 118.43H401.597L442.588 298.884L483.578 118.43H560.848L509.021 346C489.232 346 480.28 354.481 480.28 374.27V448.241H404.895V374.27ZM572.716 346V16.1888H648.101V346H572.716Z" fill="#F3EEEE"/>
<path d="M699.074 60L715.606 16.8029H724.672L740.991 60H731.765L728.085 49.4407H711.98L708.033 60H699.074ZM714.646 41.8679H725.632L720.406 26.9356H720.192L714.646 41.8679ZM746.486 60V16.8029H755.339V60H746.486ZM712.62 131H703.82V87.8029H732.138V95.6957H712.62V105.295H730.485V113.188H712.62V131ZM756.387 131.64C752.512 131.64 749.046 130.733 745.988 128.92C742.966 127.071 740.566 124.494 738.789 121.187C737.047 117.845 736.176 113.917 736.176 109.401C736.176 104.851 737.047 100.922 738.789 97.6156C740.566 94.2736 742.966 91.696 745.988 89.8828C749.046 88.0696 752.512 87.163 756.387 87.163C760.298 87.163 763.765 88.0696 766.787 89.8828C769.844 91.6605 772.244 94.2203 773.986 97.5623C775.728 100.869 776.599 104.815 776.599 109.401C776.599 113.917 775.711 117.845 773.933 121.187C772.191 124.529 769.809 127.107 766.787 128.92C763.765 130.733 760.298 131.64 756.387 131.64ZM756.387 123.747C758.698 123.747 760.689 123.161 762.36 121.987C764.067 120.778 765.382 119.107 766.307 116.974C767.267 114.806 767.747 112.281 767.747 109.401C767.747 106.486 767.267 103.962 766.307 101.829C765.382 99.6599 764.067 97.9889 762.36 96.8157C760.689 95.6424 758.698 95.0558 756.387 95.0558C754.112 95.0558 752.121 95.6424 750.415 96.8157C748.708 97.9889 747.375 99.6599 746.415 101.829C745.49 103.962 745.028 106.486 745.028 109.401C745.028 112.281 745.49 114.806 746.415 116.974C747.375 119.107 748.708 120.778 750.415 121.987C752.121 123.161 754.112 123.747 756.387 123.747ZM784.627 131V87.8029H804.679C807.417 87.8029 809.817 88.2829 811.879 89.2428C813.976 90.1672 815.612 91.5182 816.785 93.2959C817.958 95.038 818.545 97.1179 818.545 99.5355C818.545 101.669 818.029 103.589 816.998 105.295C816.003 106.966 814.403 108.175 812.199 108.922V109.188C814.296 109.188 815.878 109.721 816.945 110.788C818.012 111.819 818.545 113.383 818.545 115.481V131H809.692V114.574H793.427V131H784.627ZM793.427 106.735H804.093C805.799 106.735 807.186 106.255 808.252 105.295C809.319 104.335 809.852 102.966 809.852 101.189C809.852 99.411 809.319 98.0422 808.252 97.0823C807.186 96.1224 805.799 95.6424 804.093 95.6424H793.427V106.735ZM713.793 203V187.001L699.394 159.803H709.313L718.273 177.828H718.486L727.445 159.803H737.045L722.646 186.894V203H713.793ZM758.2 203.64C754.325 203.64 750.858 202.733 747.801 200.92C744.779 199.071 742.379 196.494 740.601 193.187C738.859 189.845 737.988 185.917 737.988 181.401C737.988 176.851 738.859 172.922 740.601 169.616C742.379 166.274 744.779 163.696 747.801 161.883C750.858 160.07 754.325 159.163 758.2 159.163C762.111 159.163 765.577 160.07 768.599 161.883C771.657 163.66 774.057 166.22 775.799 169.562C777.541 172.869 778.412 176.815 778.412 181.401C778.412 185.917 777.523 189.845 775.745 193.187C774.003 196.529 771.621 199.107 768.599 200.92C765.577 202.733 762.111 203.64 758.2 203.64ZM758.2 195.747C760.511 195.747 762.502 195.161 764.173 193.987C765.879 192.778 767.195 191.107 768.119 188.974C769.079 186.806 769.559 184.281 769.559 181.401C769.559 178.486 769.079 175.962 768.119 173.829C767.195 171.66 765.879 169.989 764.173 168.816C762.502 167.642 760.511 167.056 758.2 167.056C755.924 167.056 753.933 167.642 752.227 168.816C750.52 169.989 749.187 171.66 748.227 173.829C747.303 175.962 746.841 178.486 746.841 181.401C746.841 184.281 747.303 186.806 748.227 188.974C749.187 191.107 750.52 192.778 752.227 193.987C753.933 195.161 755.924 195.747 758.2 195.747ZM803.505 203.64C800.199 203.64 797.23 203.036 794.599 201.827C791.968 200.618 789.888 198.787 788.359 196.334C786.831 193.845 786.066 190.699 786.066 186.894V159.803H795.079V185.615C795.079 188.601 795.808 190.947 797.266 192.654C798.759 194.361 800.927 195.214 803.772 195.214C806.687 195.214 808.856 194.307 810.278 192.494C811.736 190.681 812.464 188.405 812.464 185.668V159.803H821.264V187.001C821.264 190.628 820.517 193.685 819.024 196.174C817.531 198.627 815.451 200.494 812.784 201.773C810.118 203.018 807.025 203.64 803.505 203.64ZM868.223 203H858.837L839.478 173.989H839.265V203H830.999V159.803H839.958L859.744 189.454H859.957V159.803H868.223V203ZM895.65 203.64C891.881 203.64 888.539 202.698 885.624 200.813C882.708 198.894 880.415 196.263 878.744 192.921C877.109 189.579 876.291 185.757 876.291 181.455C876.291 177.046 877.144 173.171 878.851 169.829C880.593 166.487 882.975 163.874 885.997 161.989C889.055 160.105 892.574 159.163 896.556 159.163C899.863 159.163 902.814 159.803 905.409 161.083C908.04 162.327 910.173 164.105 911.809 166.416C913.48 168.691 914.511 171.358 914.902 174.415H905.676C905.391 172.247 904.413 170.504 902.742 169.189C901.107 167.838 899.045 167.162 896.556 167.162C894.281 167.162 892.29 167.767 890.583 168.976C888.877 170.149 887.544 171.82 886.584 173.989C885.624 176.122 885.144 178.628 885.144 181.508C885.144 184.423 885.624 186.983 886.584 189.188C887.579 191.392 888.948 193.098 890.69 194.307C892.468 195.516 894.512 196.12 896.823 196.12C898.636 196.12 900.254 195.8 901.676 195.161C903.098 194.521 904.218 193.632 905.036 192.494C905.853 191.321 906.262 190.041 906.262 188.654V187.001H896.13V180.015H908.555C910.653 180.015 912.235 180.548 913.302 181.615C914.368 182.681 914.902 184.264 914.902 186.361V203H906.849V197.987H906.636C905.676 199.8 904.253 201.205 902.369 202.2C900.485 203.16 898.245 203.64 895.65 203.64ZM703.82 274V230.803H712.62V266.107H732.565V274H703.82ZM734.509 274L751.041 230.803H760.107L776.426 274H767.2L763.52 263.441H747.415L743.468 274H734.509ZM750.081 255.868H761.067L755.841 240.936H755.628L750.081 255.868ZM784.842 274L773.856 230.803H783.082L789.482 259.494H789.695L797.321 230.803H805.534L813.48 259.494H813.694L820.093 230.803H829.319L818.333 274H809.587L801.534 244.295H801.321L793.588 274H784.842ZM846.284 274V258.001L831.885 230.803H841.804L850.764 248.828H850.977L859.936 230.803H869.536L855.137 257.894V274H846.284ZM904.097 274H875.246V230.803H904.097V238.696H884.045V247.762H902.497V255.441H884.045V266.107H904.097V274ZM912.368 274V230.803H932.42C935.158 230.803 937.558 231.283 939.62 232.243C941.718 233.167 943.353 234.518 944.526 236.296C945.7 238.038 946.286 240.118 946.286 242.535C946.286 244.669 945.771 246.589 944.74 248.295C943.744 249.966 942.144 251.175 939.94 251.922V252.188C942.038 252.188 943.62 252.721 944.686 253.788C945.753 254.819 946.286 256.383 946.286 258.481V274H937.433V257.574H921.168V274H912.368ZM921.168 249.735H931.834C933.54 249.735 934.927 249.255 935.994 248.295C937.06 247.335 937.593 245.966 937.593 244.189C937.593 242.411 937.06 241.042 935.994 240.082C934.927 239.122 933.54 238.642 931.834 238.642H921.168V249.735ZM971.322 274.64C967.802 274.64 964.727 274.053 962.096 272.88C959.501 271.707 957.438 270.036 955.91 267.867C954.416 265.698 953.563 263.156 953.35 260.241H962.309C962.7 262.552 963.696 264.312 965.296 265.521C966.931 266.729 969.047 267.334 971.642 267.334C973.953 267.334 975.731 266.854 976.975 265.894C978.219 264.934 978.841 263.618 978.841 261.947C978.841 260.632 978.415 259.548 977.562 258.694C976.744 257.806 975.411 257.148 973.562 256.721L966.309 255.068C962.434 254.179 959.536 252.721 957.616 250.695C955.696 248.668 954.736 246.109 954.736 243.015C954.736 240.42 955.376 238.162 956.656 236.243C957.972 234.323 959.803 232.829 962.149 231.763C964.531 230.696 967.322 230.163 970.522 230.163C973.722 230.163 976.531 230.714 978.948 231.816C981.366 232.918 983.286 234.483 984.708 236.509C986.165 238.536 986.983 240.936 987.161 243.709H978.202C977.775 241.611 976.85 240.011 975.428 238.909C974.006 237.771 972.193 237.203 969.989 237.203C967.962 237.203 966.345 237.665 965.136 238.589C963.962 239.478 963.376 240.669 963.376 242.162C963.376 243.3 963.785 244.295 964.602 245.149C965.456 246.002 966.718 246.624 968.389 247.015L976.015 248.722C979.855 249.575 982.717 251.033 984.601 253.095C986.521 255.121 987.481 257.841 987.481 261.254C987.481 265.343 986.059 268.596 983.214 271.014C980.406 273.431 976.442 274.64 971.322 274.64ZM712.62 346H703.82V302.803H732.138V310.696H712.62V320.295H730.485V328.188H712.62V346ZM756.387 346.64C752.512 346.64 749.046 345.733 745.988 343.92C742.966 342.071 740.566 339.494 738.789 336.187C737.047 332.845 736.176 328.917 736.176 324.401C736.176 319.851 737.047 315.922 738.789 312.616C740.566 309.274 742.966 306.696 745.988 304.883C749.046 303.07 752.512 302.163 756.387 302.163C760.298 302.163 763.765 303.07 766.787 304.883C769.844 306.66 772.244 309.22 773.986 312.562C775.728 315.869 776.599 319.815 776.599 324.401C776.599 328.917 775.711 332.845 773.933 336.187C772.191 339.529 769.809 342.107 766.787 343.92C763.765 345.733 760.298 346.64 756.387 346.64ZM756.387 338.747C758.698 338.747 760.689 338.161 762.36 336.987C764.067 335.778 765.382 334.107 766.307 331.974C767.267 329.806 767.747 327.281 767.747 324.401C767.747 321.486 767.267 318.962 766.307 316.829C765.382 314.66 764.067 312.989 762.36 311.816C760.689 310.642 758.698 310.056 756.387 310.056C754.112 310.056 752.121 310.642 750.415 311.816C748.708 312.989 747.375 314.66 746.415 316.829C745.49 318.962 745.028 321.486 745.028 324.401C745.028 327.281 745.49 329.806 746.415 331.974C747.375 334.107 748.708 335.778 750.415 336.987C752.121 338.161 754.112 338.747 756.387 338.747ZM784.627 346V302.803H804.679C807.417 302.803 809.817 303.283 811.879 304.243C813.976 305.167 815.612 306.518 816.785 308.296C817.958 310.038 818.545 312.118 818.545 314.535C818.545 316.669 818.029 318.589 816.998 320.295C816.003 321.966 814.403 323.175 812.199 323.922V324.188C814.296 324.188 815.878 324.721 816.945 325.788C818.012 326.819 818.545 328.383 818.545 330.481V346H809.692V329.574H793.427V346H784.627ZM793.427 321.735H804.093C805.799 321.735 807.186 321.255 808.252 320.295C809.319 319.335 809.852 317.966 809.852 316.189C809.852 314.411 809.319 313.042 808.252 312.082C807.186 311.122 805.799 310.642 804.093 310.642H793.427V321.735ZM845.127 346.64C841.821 346.64 838.852 346.036 836.221 344.827C833.59 343.618 831.51 341.787 829.982 339.334C828.453 336.845 827.688 333.699 827.688 329.894V302.803H836.701V328.615C836.701 331.601 837.43 333.947 838.888 335.654C840.381 337.361 842.55 338.214 845.394 338.214C848.309 338.214 850.478 337.307 851.9 335.494C853.358 333.681 854.087 331.405 854.087 328.668V302.803H862.886V330.001C862.886 333.628 862.139 336.685 860.646 339.174C859.153 341.627 857.073 343.494 854.407 344.773C851.74 346.018 848.647 346.64 845.127 346.64ZM872.621 346V302.803H884.407L895.606 333.254H895.82L906.966 302.803H918.698V346H909.899V315.495H909.685L899.073 346H891.66L881.101 315.495H880.887V346H872.621Z" fill="#F3EEEE"/>
</svg>
