<?xml version="1.0" encoding="UTF-8"?>
<svg id="Layer_2" data-name="Layer 2" xmlns="http://www.w3.org/2000/svg" viewBox="0 0 1124.44 779.68">
  <defs>
    <style>
      .cls-1 {
        fill: #231f20;
      }
    </style>
  </defs>
  <g id="Layer_1-2" data-name="Layer 1">
    <g id="CsuD0O.tif">
      <g>
        <path class="cls-1" d="M969.56,196.5c3.84,2.39-3.33,24.19-4.36,28.82-17.82,79.61-37.13,159.61-55.7,238.98-10.5,44.91-21.37,89.73-30.97,134.85-2.61,5.9-9.13,3.12-14.23,3.75-44.28,5.49-37.04,62.42-37.44,94.33-.21,16.99-.79,34.08-1.09,50.94-.18,10.16-.36,20.48,1.04,30.5l-135.9,1.01c2.14-22.39,2.55-44.92,2.04-67.47-.4-17.87-2.8-35.89-3.08-53.85-.19-12.69,2.36-19.96-1.82-33.15-4.97-15.72-15.22-20.3-30.75-22.19-4.01-.49-12.03,1.93-14.1-2.9-5.05-28.3-11.21-56.33-17.53-84.35-21.25-94.2-44.93-188.75-66.07-282.45-1.34-5.94-8.72-31.33-6.15-35.02,3.63-1.54,9.02-1.12,13.1-.98,7.89.25,17.03,1.86,24.89,2.09,32,.93,64.06-1.57,95.94.99l3.04,1.96c2.43,12.23,3.28,25.02,5.74,37.22,8.41,41.83,22.3,83.14,28.02,125.81l36.69,151.61,2.12-3.36c24.95-104.49,51.09-208.63,70.95-314.13l135.61-3Z"/>
        <path class="cls-1" d="M224.37,601.8l-1.09-56.85c-3.46,2.85-3.92,8.08-6.18,12.29-30.27,56.56-80.22,73.98-140.66,52.09-55.34-20.05-78.72-87.77-52.88-139.67,31.05-62.34,102.88-73.35,162-96.76,12.4-4.91,32.44-12.93,35.26-27.67,4.99-26.05-34.04-23.62-49.86-21.88-55.18,6.06-113.66,35.93-151.04,76.75-5.85,6.39-10.51,14.25-16.66,20.31-.88.87-.84,2.19-2.81,1.68l-.47-158.77c3.74-4.85,7.93-9.4,12.44-13.54,73.26-67.2,173.51-90.57,266.79-49.91,30.86,13.45,61.9,47.91,70.28,80.57,7.74,30.16,8.05,57.55,8.62,88.17,1.42,75.17,1.08,150.53,1.09,225.82-.29,2.64-.32,6.93-3.52,7.47-12.71-.64-25.49.55-38.15.61-19.49.1-39.5-.72-58.75-.67-11.6.03-23.07,1.02-34.43-.04ZM158.68,521.64c1.84,2.36,9.35,9.35,11.94,10.54,9.19,4.2,26.04,2.88,34.64-2.75,12.42-8.13,15.74-24.15,17.02-37.92,1.94-20.96,1.2-41.99.92-62.92-.05-3.54,1.6-6.89,1.08-10.48-2.84,2.38-4.02,6.06-6.47,9-17.74,21.27-47.82,31.7-60.88,55-6.68,11.91-6.83,28.51,1.76,39.54Z"/>
        <path class="cls-1" d="M1123.5,601.8c-4.92,2.58-9.67.16-14.37.05-12.66-.31-25.38.28-38.05.08-25.12-3.65-55.12,1.11-79.94-1.99-2.38-.3-7.16-2.02-7.21-4.74l-1.29-378.4c3.04-11.31.65-21.26.01-31.88-2.04-34.07.41-71.42.08-105.95-.17-17.21-2.3-35.45-1.09-52.94.09-1.31.28-5.12,1.74-5.47,19.13-1.96,38.54-.6,57.8-.94,18.18-.32,36.65-.7,54.96-1,4.72-.08,26.56-3.54,28.3,1.59l-.94,581.59Z"/>
        <path class="cls-1" d="M536.93,199.46l.91,399.72-1.8,2.22c-2.5,1.42-5.05-.46-7.51-.52-38.68-.84-79.22,1.98-117.02-1.71-2.35-.23-5.91,1.68-8.73.56l-1.68-399.72c5.12-3.36,11.1-.23,17.41-.79,23.79-2.12,27.88-29.77,16.43-47.14-5.9-8.95-14.77-13.79-21.22-21.73-24.81-30.54-30.87-70.01-4.09-101.81,59.78-70.99,172.6,2.33,119.84,89.83-7.64,12.68-15.62,19.81-24.38,30.56-9.08,11.14-19.19,29.74-4.95,40.86,11.8,9.22,22.83,8.19,36.79,9.66Z"/>
      </g>
    </g>
  </g>
</svg>