<?xml version="1.0" encoding="UTF-8"?>
<svg id="Layer_2" data-name="Layer 2" xmlns="http://www.w3.org/2000/svg" viewBox="0 0 1428.25 604.07">
  <g id="Layer_1-2" data-name="Layer 1">
    <g id="YWdGTy.tif">
      <g>
        <path d="M1205.31,331.31c-.48-1.82-19.54-28.67-21.66-30.85-1.47-1.51-2.04-2.91-4.6-2.33l-18.62,67.84c-4.77-.62-18.11,1.81-20.82-1.45-2.37-2.85-8.8-27.53-11.17-33.67-.75-1.94.7-4.08-2.7-3.4l-13.37,38.38-18.93.31-21.03-71.09,20.02.06,11.66,44.71,14.9-44.56h15.02l14.9,44.56,11.66-44.71,40.64.19,14.16,18.24,11.59-18.49h23.18c-2.38,5.96-26.27,34.84-26.27,37.82v33.18h-18.55c-1.61-9.4,2.18-26.42,0-34.73Z"/>
        <path d="M1277.97,426.22l14.62-35.53,19.35-1.49,10.84,70.99h-18.56s-4.65-38.59-4.65-38.59c-2.34.16-2.33,2.42-3.09,3.84-2.73,5.16-12.54,33.52-14.15,34.48-1.08.65-8.17.64-8.85.07l-14.86-38.41-5.4,38.61h-18.56s10.84-71,10.84-71l19.35,1.49,13.11,35.53Z"/>
        <path d="M1234.68,242.56v-41.67h18.55v71c-6.14-.66-13.99,1.65-19.4-1.46-8.62-4.94-22.76-33.91-33.14-40.22v41.67h-18.55v-71l19.4,1.46,33.14,40.22Z"/>
        <path d="M1051.96,198.22c56.1-1.53,54.77,85.65-9.33,74.84-40.58-6.85-39.46-73.51,9.33-74.84ZM1048.83,216.64c-20.23,3.88-21.54,35.01.33,39.16,31.46,5.97,30.61-45.09-.33-39.16Z"/>
        <path d="M1038.1,104.03c52.21-4.1,57.32,69.05,11.76,75.11-59.58,7.93-63.8-71.03-11.76-75.11ZM1038.03,122.5c-25.06,3.62-19.64,40.75,4.11,39.71,27.47-1.21,25.14-43.93-4.11-39.71Z"/>
        <path d="M1012.68,451.92c-39.73-39.78,29.38-92.29,61.26-49.61,29.37,39.32-28.8,82.12-61.26,49.61ZM1039.58,404.91c-30.83,3.57-18.84,51.13,11.19,37.54,20.01-9.06,10.42-40.04-11.19-37.54Z"/>
        <path d="M1341.31,231.76c4.15,57.69-82.75,57.62-74.05-5.26,4.47-32.31,58.74-39.19,69.5-7.95l-16.16,6.92c-16.41-26.61-45.25.59-31.6,23.81,7.03,11.96,27.37,12.46,30.67-2.07l-14.77-1.45-.67-13.99h37.09Z"/>
        <path d="M1346.72,295.04c21.01,3.48,23.81,36.76,2.32,41.7l20.08,29.3-21.64-.75-16.99-23.93v24.7h-20.09v-71c11.06,1.29,25.77-1.75,36.32,0ZM1330.5,327.45l13.15-4.59c3.75-9.98-3.89-14.93-13.16-13.93v18.52Z"/>
        <path d="M1151.22,177.73h-23.18l-17-26.24v26.24h-18.55v-71h37.86c1.33,0,8.64,5.26,10.06,6.93,5.61,6.6,6.59,19.55,2.18,26.91-2.69,4.49-12.15,6.76-11.39,10.03,1.06,4.54,19,19.8,20.01,27.13ZM1111.03,137.61c20.85,2.92,20.89-19.42,0-16.99v16.99Z"/>
        <path d="M1128.81,389.19c20.21,3.35,23.34,37.42,2.32,41.7l20.09,29.3h-23.18l-17-26.24v26.24h-18.55v-71c11.06,1.29,25.77-1.75,36.32,0ZM1124.53,418.12c6.77-7.15-3.32-17.95-12.04-14.39-2.14,1.55-2.18,14.33-.76,16.41,2.16,3.17,10.82.08,12.8-2.01Z"/>
        <path d="M1179.04,389.19v50.16c0,6.76,15.59,9.8,20.82,3.82.68-.77,3.91-7.98,3.91-8.45v-45.53h18.55v48.62c0,.7-3.6,11.27-4.32,12.66-9.12,17.47-48.73,16.56-56.04-3.31-.61-1.67-3-11.4-3-12.43v-45.53h20.09Z"/>
        <path d="M1123.4,200.89v48.62c0,10.76,24.73,10.76,24.73,0v-48.62h18.55v51.71c0,3.33-6.89,13.88-10.03,16.22-8.62,6.41-30.87,6.6-39.96,1.3-4.8-2.8-11.82-12.08-11.82-17.52v-51.71h18.55Z"/>
        <path d="M994.98,12.74l26.42,70.83-19.11-.2-6.61-11.92c-5.19.4-23.35-1.98-26.09,1.3-2.02,2.43-1.1,9.37-4.82,10.62l-17.56.2,25.49-69.46,22.27-1.38ZM992.03,57.33l-9.25-23.13-7.75,23.13h16.99Z"/>
        <path d="M1047.42,295.3l26.52,70.73-19.93-.15-3.07-11.27-25.42-.67-5.87,11.89-19.88.2,26.45-70.8,21.21.08ZM1044.58,339.79l-6.94-21.59c-4.85,5.98-6.21,14.36-8.5,21.59h15.44Z"/>
        <path d="M1375.31,361.38l8.48-15.32c5.09,5.58,22.54,10.72,24.01.6s-13.98-9.31-20.67-13.26c-8.44-4.99-9.91-12.78-8.59-22.03,3.07-21.49,30.42-21.26,45.57-13.32l-5.5,13.31c-1.96,1.26-15.21-6.2-19.45-1.01-4.43,11.8,10.13,11.02,17.72,14.93,15.71,8.1,14.68,31.84-.3,39.51-14,7.17-27.97,2.53-41.26-3.42Z"/>
        <polygon points="1298.04 295.04 1298.04 310.47 1276.4 310.47 1276.4 322.83 1296.52 323.71 1296.5 338.26 1276.4 338.25 1276.4 350.6 1298.04 350.6 1298.04 366.04 1256.31 366.04 1256.31 295.04 1298.04 295.04"/>
        <path d="M970.4,237.16c-.69-2.63-15.86-21.4-18.89-25.89-1.08-1.6-6.96-9.38-5.83-10.37l21.62.77c3.91,4.89,6.61,10.84,10.39,15.79.75.99-.22,2.66,2.74,1.96l12.38-18.53h22.41l-26.27,36.27v34.73h-18.55c-1.61-9.39,2.18-26.43,0-34.73Z"/>
        <polygon points="993.58 389.19 993.58 404.62 971.95 404.62 971.94 416.98 992.04 416.96 992.06 431.52 971.95 432.41 971.95 460.19 953.4 460.19 953.4 389.19 993.58 389.19"/>
        <polygon points="993.58 106.73 993.58 122.17 971.95 122.17 971.94 134.52 992.04 134.51 992.06 149.06 971.95 149.95 971.95 177.73 953.4 177.73 953.4 106.73 993.58 106.73"/>
        <polygon points="971.95 295.04 971.95 350.6 993.58 350.6 993.58 366.04 953.4 366.04 953.4 295.04 971.95 295.04"/>
        <rect x="1029.13" y="12.58" width="18.55" height="71"/>
        <path d="M94.67,477.85c-47.66,0-83.72-31.56-83.72-80.5,0-37.35,20.61-68.26,81.79-90.8l32.2-11.59c38-13.52,49.59-19.96,49.59-30.27s-11.59-16.1-32.2-16.1c-47.01,0-108.19,30.91-142.32,80.5v-126.22c38.64-38,89.52-63.11,147.48-63.11,75.99,0,130.09,43.15,130.09,119.78v204.79h-103.04v-49.59c-14.81,41.22-39.93,63.11-79.86,63.11ZM144.26,413.45c19.96,0,30.27-19.32,30.27-47.66v-45.08c-3.86,7.73-11.59,17.39-27.05,27.69-18.68,12.24-29.62,23.83-29.62,38.64s10.95,26.4,26.4,26.4Z"/>
        <path d="M311.46,464.32V153.27h10.3c14.81,0,20.61-9.02,20.61-18.68,0-24.47-37.35-37.35-37.35-77.28,0-32.84,25.76-57.32,57.96-57.32s57.96,24.47,57.96,57.32c0,39.93-37.35,52.81-37.35,77.28,0,9.66,5.8,18.68,20.61,18.68h10.3v311.05h-103.04Z"/>
        <path d="M540.54,502.96c0-27.05-12.24-38.64-39.28-38.64l-70.84-311.05h105.62l56.03,246.65,56.03-246.65h105.62l-70.84,311.05c-27.05,0-39.28,11.59-39.28,38.64v101.11h-103.04v-101.11Z"/>
        <path d="M769.93,464.32V13.52h103.04v450.8h-103.04Z"/>
      </g>
    </g>
  </g>
</svg>