<?xml version="1.0" encoding="UTF-8"?>
<svg id="Layer_2" data-name="Layer 2" xmlns="http://www.w3.org/2000/svg" viewBox="0 0 1426.82 599.77">
  <g id="Layer_1-2" data-name="Layer 1">
    <g id="YWdGTy.tif">
      <g>
        <path d="M636.7,597.74c-19.31.32-38.7-.4-58.02-.06-13.13.23-28.09,3.17-41.74,1.68-2.13-.23-4.19-.03-5.16-2.51,1.29-9.57,3.05-19.59,2.99-29.28-.11-17.14-2.36-36.72-3.15-53.96-.84-18.38,5.15-45.5-19.7-49.78-6.23-1.07-14.62,2.29-16.66-4.97-17.33-92.84-43.4-183.83-63.7-275.95-.99-4.5-6.54-31.28-5.06-32.78,13.26,3.53,102.06-1.2,105.97,4.53l53.99,240.9,55.56-242.42,105.95-3.01-71.09,310.67-1.94,1.57c-17.96-.54-32.74,8.98-36.01,27.26-.74,4.16-2.25,15.9-2.25,19.37v88.75Z"/>
        <path d="M173.06,418.69l-16.36,26.1c-58.25,73.24-183.37,3.5-135.9-87.88,28.24-54.36,92.46-50.97,137.36-77.36,14.19-8.34,18.87-27.46-.47-31.51-42.61-8.94-108.81,25.12-138.25,55.04l-17.92,21.44-1.53-121.12c46.84-54.77,118.33-77.75,189.16-59.34,59.52,15.47,83.57,51.39,87.49,111.73,3.81,58.53,1.79,130.38,1.55,189.83-.02,4.7-3.02,10.8-1.6,16.28h-103.55v-43.22ZM171.53,321.47c-9.72,22.91-42.06,28.06-51.33,51.39-14.02,35.28,34.46,51.24,47.46,22.71,5.82-12.76,6.19-55.06,5.39-70.27-.09-1.74,1.01-4.24-1.53-3.82Z"/>
        <path d="M865.44,461.92c-22.87-.71-45.97.91-68.85.06-3.65-.14-7.03-1.46-10.69-1.67-6.31-.37-26.22,2.44-28.4-4.05l.78-442.01,107.25-.81,1.23,1.86-1.32,446.63Z"/>
        <path d="M414.16,151.66l1.32,307.72-1.23,1.86c-4.49,3.13-27.97-.9-34.8-.94-18.58-.13-37.36,1.58-55.71,1.62-4.35,0-9.7-2.8-14.68-1.56V155.53s2.53-3.64,2.53-3.64c23.06,4.3,36.39-14.17,24.73-34.39-10.14-17.59-31.05-25.33-33.42-51.52-8-88.33,126.58-87.49,115.45-.41-3.26,25.49-22.96,36.21-33.27,54.76-13.75,24.75,7.4,32.31,29.07,31.33Z"/>
        <path d="M1203.89,329.94c-.48-1.82-19.54-28.67-21.66-30.85-1.47-1.51-2.04-2.91-4.6-2.33l-18.62,67.84c-4.77-.62-18.11,1.81-20.82-1.45-2.37-2.85-8.8-27.53-11.17-33.67-.75-1.94.7-4.08-2.7-3.4l-13.37,38.38-18.93.31-21.03-71.09,20.02.06,11.66,44.71,14.9-44.56h15.02l14.9,44.56,11.66-44.71,40.64.19,14.16,18.24,11.59-18.49h23.18c-2.38,5.96-26.27,34.84-26.27,37.82v33.18h-18.55c-1.61-9.4,2.18-26.42,0-34.73Z"/>
        <path d="M1276.54,424.85l14.62-35.53,19.35-1.49,10.84,70.99h-18.56s-4.65-38.59-4.65-38.59c-2.34.16-2.33,2.42-3.09,3.84-2.73,5.16-12.54,33.52-14.15,34.48-1.08.65-8.17.64-8.85.07l-14.86-38.41-5.4,38.61h-18.56s10.84-71,10.84-71l19.35,1.49,13.11,35.53Z"/>
        <path d="M1233.25,241.19v-41.67h18.55v71c-6.14-.66-13.99,1.65-19.4-1.46-8.62-4.94-22.76-33.91-33.14-40.22v41.67h-18.55v-71l19.4,1.46,33.14,40.22Z"/>
        <path d="M1050.54,196.86c56.1-1.53,54.77,85.65-9.33,74.84-40.58-6.85-39.46-73.51,9.33-74.84ZM1047.4,215.27c-20.23,3.88-21.54,35.01.33,39.16,31.46,5.97,30.61-45.09-.33-39.16Z"/>
        <path d="M1036.67,102.67c52.21-4.1,57.32,69.05,11.76,75.11-59.58,7.93-63.8-71.03-11.76-75.11ZM1036.6,121.14c-25.06,3.62-19.64,40.75,4.11,39.71,27.47-1.21,25.14-43.93-4.11-39.71Z"/>
        <path d="M1011.26,450.55c-39.73-39.78,29.38-92.29,61.26-49.61,29.37,39.32-28.8,82.12-61.26,49.61ZM1038.16,403.54c-30.83,3.57-18.84,51.13,11.19,37.54,20.01-9.06,10.42-40.04-11.19-37.54Z"/>
        <path d="M1339.89,230.39c4.15,57.69-82.75,57.62-74.05-5.26,4.47-32.31,58.74-39.19,69.5-7.95l-16.16,6.92c-16.41-26.61-45.25.59-31.6,23.81,7.03,11.96,27.37,12.46,30.67-2.07l-14.77-1.45-.67-13.99h37.09Z"/>
        <path d="M1345.3,293.67c21.01,3.48,23.81,36.76,2.32,41.7l20.08,29.3-21.64-.75-16.99-23.93v24.7h-20.09v-71c11.06,1.29,25.77-1.75,36.32,0ZM1329.08,326.08l13.15-4.59c3.75-9.98-3.89-14.93-13.16-13.93v18.52Z"/>
        <path d="M1149.8,176.37h-23.18l-17-26.24v26.24h-18.55v-71h37.86c1.33,0,8.64,5.26,10.06,6.93,5.61,6.6,6.59,19.55,2.18,26.91-2.69,4.49-12.15,6.76-11.39,10.03,1.06,4.54,19,19.8,20.01,27.13ZM1109.61,136.24c20.85,2.92,20.89-19.42,0-16.99v16.99Z"/>
        <path d="M1127.39,387.82c20.21,3.35,23.34,37.42,2.32,41.7l20.09,29.3h-23.18l-17-26.24v26.24h-18.55v-71c11.06,1.29,25.77-1.75,36.32,0ZM1123.11,416.76c6.77-7.15-3.32-17.95-12.04-14.39-2.14,1.55-2.18,14.33-.76,16.41,2.16,3.17,10.82.08,12.8-2.01Z"/>
        <path d="M1177.61,387.82v50.16c0,6.76,15.59,9.8,20.82,3.82.68-.77,3.91-7.98,3.91-8.45v-45.53h18.55v48.62c0,.7-3.6,11.27-4.32,12.66-9.12,17.47-48.73,16.56-56.04-3.31-.61-1.67-3-11.4-3-12.43v-45.53h20.09Z"/>
        <path d="M1121.98,199.52v48.62c0,10.76,24.73,10.76,24.73,0v-48.62h18.55v51.71c0,3.33-6.89,13.88-10.03,16.22-8.62,6.41-30.87,6.6-39.96,1.3-4.8-2.8-11.82-12.08-11.82-17.52v-51.71h18.55Z"/>
        <path d="M993.55,11.37l26.42,70.83-19.11-.2-6.61-11.92c-5.19.4-23.35-1.98-26.09,1.3-2.02,2.43-1.1,9.37-4.82,10.62l-17.56.2,25.49-69.46,22.27-1.38ZM990.6,55.97l-9.25-23.13-7.75,23.13h16.99Z"/>
        <path d="M1046,293.93l26.52,70.73-19.93-.15-3.07-11.27-25.42-.67-5.87,11.89-19.88.2,26.45-70.8,21.21.08ZM1043.15,338.42l-6.94-21.59c-4.85,5.98-6.21,14.36-8.5,21.59h15.44Z"/>
        <path d="M1373.89,360.02l8.48-15.32c5.09,5.58,22.54,10.72,24.01.6s-13.98-9.31-20.67-13.26c-8.44-4.99-9.91-12.78-8.59-22.03,3.07-21.49,30.42-21.26,45.57-13.32l-5.5,13.31c-1.96,1.26-15.21-6.2-19.45-1.01-4.43,11.8,10.13,11.02,17.72,14.93,15.71,8.1,14.68,31.84-.3,39.51-14,7.17-27.97,2.53-41.26-3.42Z"/>
        <polygon points="1296.62 293.67 1296.62 309.11 1274.98 309.11 1274.97 321.46 1295.1 322.34 1295.08 336.9 1274.97 336.88 1274.98 349.24 1296.62 349.24 1296.62 364.67 1254.89 364.67 1254.89 293.67 1296.62 293.67"/>
        <path d="M968.98,235.79c-.69-2.63-15.86-21.4-18.89-25.89-1.08-1.6-6.96-9.38-5.83-10.37l21.62.77c3.91,4.89,6.61,10.84,10.39,15.79.75.99-.22,2.66,2.74,1.96l12.38-18.53h22.41l-26.27,36.27v34.73h-18.55c-1.61-9.39,2.18-26.43,0-34.73Z"/>
        <polygon points="992.16 387.82 992.16 403.26 970.52 403.26 970.51 415.61 990.62 415.6 990.64 430.15 970.52 431.04 970.52 458.82 951.98 458.82 951.98 387.82 992.16 387.82"/>
        <polygon points="992.16 105.37 992.16 120.8 970.52 120.8 970.51 133.16 990.62 133.14 990.64 147.7 970.52 148.58 970.52 176.37 951.98 176.37 951.98 105.37 992.16 105.37"/>
        <polygon points="970.52 293.67 970.52 349.24 992.16 349.24 992.16 364.67 951.98 364.67 951.98 293.67 970.52 293.67"/>
        <rect x="1027.7" y="11.21" width="18.55" height="71"/>
      </g>
    </g>
  </g>
</svg>