<svg width="1356" height="938" viewBox="0 0 1356 938" fill="none" xmlns="http://www.w3.org/2000/svg">
<path d="M147 742C73 742 17 693 17 617C17 559 49 511 144 476L194 458C253 437 271 427 271 411C271 395 253 386 221 386C148 386 53 434 0 511V315C60 256 139 217 229 217C347 217 431 284 431 403V721H271V644C248 708 209 742 147 742ZM224 642C255 642 271 612 271 568V498C265 510 253 525 229 541C200 560 183 578 183 601C183 624 200 642 224 642Z" fill="black"/>
<path d="M483.633 721V238H499.633C522.633 238 531.633 224 531.633 209C531.633 171 473.633 151 473.633 89C473.633 38 513.633 0 563.633 0C613.633 0 653.633 38 653.633 89C653.633 151 595.633 171 595.633 209C595.633 224 604.633 238 627.633 238H643.633V721H483.633Z" fill="black"/>
<path d="M839.359 781C839.359 739 820.359 721 778.359 721L668.359 238H832.359L919.359 621L1006.36 238H1170.36L1060.36 721C1018.36 721 999.359 739 999.359 781V938H839.359V781Z" fill="black"/>
<path d="M1195.55 721V21H1355.55V721H1195.55Z" fill="black"/>
</svg>
