<?xml version="1.0" encoding="UTF-8"?>
<svg id="Layer_2" data-name="Layer 2" xmlns="http://www.w3.org/2000/svg" viewBox="0 0 1191.31 303.13">
  <defs>
    <style>
      .cls-1 {
        fill: #120e0d;
      }
    </style>
  </defs>
  <g id="Layer_1-2" data-name="Layer 1">
    <g>
      <path class="cls-1" d="M87.56,236.8C21.56,171.8,0,135.98,0,94.85,0,37.81,42.12,0,101.82,0c24.21,0,53.06,10.61,68.65,25.21v66c-12.27-20.89-36.15-34.82-60.03-34.82-27.53,0-50.08,19.9-50.08,45.1,0,32.5,38.8,77.27,111.1,135.31h-83.91Z"/>
      <path class="cls-1" d="M263.2,127.69c0-1.99,0-3.32-.33-5.31-1.99,3.98-5.31,7.3-9.95,11.28l-21.89,19.24c-9.95,8.95-16.91,20.56-16.91,32.17,0,14.59,10.94,21.56,21.89,21.56,8.95,0,17.25-4.64,22.88-10.61.33-26.2,4.31-40.79,4.31-68.32ZM161.38,199.65c0-24.54,16.25-39.47,37.48-49.42l42.78-20.56c11.61-5.64,17.25-8.62,17.25-14.26,0-8.29-11.28-11.28-22.55-11.28-20.89,0-40.79,10.61-55.39,26.2v-61.02c15.26-9.95,40.46-21.56,68.65-21.56,30.18,0,67.33,12.6,67.33,59.7s-3.32,62.68-3.32,87.22,10.94,37.14,15.92,42.78h-62.35c-4.64-5.97-7.96-15.26-8.29-33.5-11.94,27.53-33.5,38.14-53.4,38.14-22.88,0-44.11-14.59-44.11-42.45Z"/>
      <path class="cls-1" d="M337.67,236.8c18.24-7.63,37.48-21.23,37.48-42.12,0-34.16-47.43-30.51-47.43-81.25,0-45.44,35.49-65.67,69.32-65.67,22.88,0,42.12,9.29,53.4,18.24v61.02c-12.93-14.59-31.84-22.88-44.77-22.88-9.29,0-14.92,4.31-14.92,9.95,0,17.91,57.38,26.53,57.38,71.97,0,23.55-15.59,40.79-31.18,50.74h-79.26Z"/>
      <path class="cls-1" d="M507.34,236.14c-22.88-19.57-49.42-59.37-49.42-103.14,0-58.37,44.77-85.23,83.58-85.23,61.03,0,73.63,44.11,73.63,71.97,0,6.3-.66,22.55-4.97,35.82-31.18,5.31-62.02,4.64-92.2,2.65,11.94,31.84,45.44,61.02,73.96,77.94h-84.57ZM514.97,148.58c44.44,6.63,50.41-12.93,50.41-24.21,0-17.25-12.6-23.55-23.88-23.55-12.27,0-28.19,7.63-28.19,32.83,0,4.97.66,10.28,1.66,14.92Z"/>
      <path class="cls-1" d="M625.12,4.64h55.39v78.27c-20.08-14.78-25.01-16.82-11.08-23.78,74.1-33.08,115.55,20.27,115.55,69.88,0,35.16-16.92,78.27-44.11,107.79h-115.75V4.64ZM680.51,230.83c34.16-32.17,49.08-69.65,49.08-98.5,0-21.56-10.94-40.46-33.49-40.46-5.64,0-11.28,1.33-15.59,2.98v135.98Z"/>
      <path class="cls-1" d="M795.46,303.13c15.59-13.27,29.19-33.5,35.82-51.41l3.65-9.95-46.1-153.89c-4.65-14.92-9.95-27.86-15.59-34.82h64.34l23.54,125.7,26.87-125.7h58.7l-64.01,197.66c-6.97,21.89-14.59,38.47-24.21,52.4h-63.01Z"/>
      <path class="cls-1" d="M961.49,236.8c-6.63-4.97-11.61-15.92-11.61-43.11V21.23l55.38-13.27v45.1h38.8l-9.95,39.8h-28.85v94.52c0,31.18,13.27,43.78,19.24,49.42h-63.02Z"/>
      <path class="cls-1" d="M1083.52,236.14c-22.88-19.57-49.41-59.37-49.41-103.14,0-58.37,44.77-85.23,83.57-85.23,61.03,0,73.63,44.11,73.63,71.97,0,6.3-.66,22.55-4.97,35.82-31.18,5.31-62.02,4.64-92.2,2.65,11.94,31.84,45.44,61.02,73.96,77.94h-84.57ZM1091.15,148.58c44.44,6.63,50.41-12.93,50.41-24.21,0-17.25-12.6-23.55-23.88-23.55-12.27,0-28.19,7.63-28.19,32.83,0,4.97.66,10.28,1.66,14.92Z"/>
    </g>
  </g>
</svg>